name analog
datacolumns 19
datarows 42
range 0.189 0.2095
endheader
time	ground_force_vx	ground_force_vy	ground_force_vz	ground_force_px	ground_force_py	ground_force_pz	l_ground_force_vx	l_ground_force_vy	l_ground_force_vz	l_ground_force_px	l_ground_force_py	l_ground_force_pz	ground_torque_x	ground_torque_y	ground_torque_z	l_ground_torque_x	l_ground_torque_y	l_ground_torque_z
0.189	-0.0	-0.0	-0.0	5.360568046569824	74.4095687866211	-455.4024963378906	13.211281776428224	-40.56134796142578	-298.528564453125	-0.0	-0.0	-0.0	-0.0	-0.0	-0.0	74281.53125	-34119.85546875	-2681.263916015625
0.1895	-0.0	-0.0	-0.0	4.287782192230225	73.67113494873047	-455.6021118164063	13.062820434570312	-39.67867660522461	-295.0331420898437	-0.0	-0.0	-0.0	-0.0	-0.0	-0.0	73842.7578125	-34040.58203125	-2698.3486328125
0.19	-0.0	-0.0	-0.0	4.081157684326172	72.9629898071289	-455.3260498046875	13.692026138305664	-39.26727294921875	-294.6288452148437	-0.0	-0.0	-0.0	-0.0	-0.0	-0.0	73791.765625	-33877.8203125	-2647.27783203125
0.1905	-0.0	-0.0	-0.0	3.84985089302063	72.1122055053711	-455.0833740234375	14.620888710021973	-37.97834777832031	-292.5008239746094	-0.0	-0.0	-0.0	-0.0	-0.0	-0.0	73327.796875	-33664.34765625	-2567.019287109375
0.191	-0.0	-0.0	-0.0	4.3973388671875	71.6552734375	-455.75341796875	15.570053100585938	-37.049598693847656	-292.61541748046875	-0.0	-0.0	-0.0	-0.0	-0.0	-0.0	73517.3671875	-33793.5625	-2448.32861328125
0.1915	-0.0	-0.0	-0.0	4.203826427459717	70.2911148071289	-455.7319641113281	16.871170043945312	-36.54377746582031	-293.9645080566406	-0.0	-0.0	-0.0	-0.0	-0.0	-0.0	73536.296875	-33543.2109375	-2142.078125
0.192	-0.0	-0.0	-0.0	4.8017897605896	69.14424133300781	-457.2821960449219	17.517736434936523	-35.81805419921875	-293.6065368652344	-0.0	-0.0	-0.0	-0.0	-0.0	-0.0	73771.4765625	-33326.11328125	-2155.46142578125
0.1925	-0.0	-0.0	-0.0	4.920027732849121	68.15093994140625	-460.7659606933594	18.04735565185547	-34.92066955566406	-294.6132202148437	-0.0	-0.0	-0.0	-0.0	-0.0	-0.0	74033.1015625	-33243.63671875	-2013.1572265625
0.193	-0.0	-0.0	-0.0	5.380416870117188	66.88594818115234	-464.7167053222656	18.0760498046875	-33.890865325927734	-296.080322265625	-0.0	-0.0	-0.0	-0.0	-0.0	-0.0	74331.671875	-32837.1171875	-2038.6640625
0.1935	-0.0	-0.0	-0.0	6.743399620056152	66.30257415771484	-467.9427490234375	18.43129539489746	-32.68925476074219	-296.42974853515625	-0.0	-0.0	-0.0	-0.0	-0.0	-0.0	74489.9375	-32652.16015625	-2108.212646484375
0.194	-0.0	-0.0	-0.0	7.220834255218506	64.91438293457031	-471.422119140625	18.097047805786133	-31.984373092651367	-297.99578857421875	-0.0	-0.0	-0.0	-0.0	-0.0	-0.0	74265.5078125	-32027.798828125	-2324.284912109375
0.1945	-0.0	-0.0	-0.0	7.734573364257812	64.40692138671875	-472.03521728515625	17.64840316772461	-31.19252014160156	-296.8577880859375	-0.0	-0.0	-0.0	-0.0	-0.0	-0.0	74228.4765625	-31518.587890625	-2515.9931640625
0.195	-0.0	-0.0	-0.0	8.767876625061035	63.96242904663086	-471.3384094238281	16.8378963470459	-31.080699920654297	-299.5289611816406	-0.0	-0.0	-0.0	-0.0	-0.0	-0.0	74324.984375	-30960.89453125	-2779.7890625
0.1955	-0.0	-0.0	-0.0	9.21373176574707	63.35169982910156	-472.9674682617188	16.066492080688477	-31.344402313232425	-302.0936279296875	-0.0	-0.0	-0.0	-0.0	-0.0	-0.0	75113.375	-30677.32421875	-2885.46240234375
0.196	-0.0	-0.0	-0.0	9.87371063232422	62.46191787719727	-470.416015625	15.512226104736328	-31.20050811767578	-304.96807861328125	-0.0	-0.0	-0.0	-0.0	-0.0	-0.0	75874.109375	-30181.353515625	-3286.64306640625
0.1965	-0.0	-0.0	-0.0	11.069583892822266	61.593849182128906	-469.4146728515625	14.245267868041992	-31.447280883789062	-308.2579040527344	-0.0	-0.0	-0.0	-0.0	-0.0	-0.0	76465.65625	-29558.052734375	-3705.088623046875
0.197	-0.0	-0.0	-0.0	11.213383674621582	61.22420120239258	-468.3118591308594	13.138384819030762	-31.767852783203125	-311.3654479980469	-0.0	-0.0	-0.0	-0.0	-0.0	-0.0	77190.75	-29095.71875	-4065.062744140625
0.1975	-0.0	-0.0	-0.0	11.752036094665527	60.435157775878906	-469.6917114257813	11.53240203857422	-31.860923767089844	-314.6590270996094	-0.0	-0.0	-0.0	-0.0	-0.0	-0.0	77964.3671875	-28497.068359375	-4452.6142578125
0.198	-0.0	-0.0	-0.0	11.425878524780272	60.00824737548828	-468.5902404785156	10.192623138427734	-31.4085636138916	-319.3143310546875	-0.0	-0.0	-0.0	-0.0	-0.0	-0.0	78103.2734375	-28255.54296875	-4872.66845703125
0.1985	-0.0	-0.0	-0.0	11.416641235351562	58.9175033569336	-464.5963134765625	8.719878196716309	-31.114057540893555	-321.3405456542969	-0.0	-0.0	-0.0	-0.0	-0.0	-0.0	78594.921875	-27594.5390625	-5235.888671875
0.199	-0.0	-0.0	-0.0	10.801855087280272	57.68287658691406	-462.6844177246094	7.596848011016846	-31.63353729248047	-322.7898864746094	-0.0	-0.0	-0.0	-0.0	-0.0	-0.0	78789.71875	-27031.59765625	-5650.3193359375
0.1995	-0.0	-0.0	-0.0	10.9910249710083	57.100887298583984	-459.54095458984375	6.7420196533203125	-31.70748519897461	-324.0826721191406	-0.0	-0.0	-0.0	-0.0	-0.0	-0.0	79164.453125	-26769.48046875	-5903.4296875
0.2	-0.0	-0.0	-0.0	10.927148818969728	55.52596282958984	-456.6307678222656	6.219613552093506	-32.00434875488281	-326.2250366210937	-0.0	-0.0	-0.0	-0.0	-0.0	-0.0	79759.8984375	-26259.041015625	-5884.49365234375
0.2005	-0.0	-0.0	-0.0	11.686640739440918	54.46316146850586	-453.3322143554688	5.84850025177002	-32.58219146728516	-327.8871459960937	-0.0	-0.0	-0.0	-0.0	-0.0	-0.0	80079.96875	-26226.306640625	-5887.6552734375
0.201	-0.0	-0.0	-0.0	11.187625885009766	53.64461898803711	-452.6429748535156	5.493689060211182	-33.17946243286133	-330.33502197265625	-0.0	-0.0	-0.0	-0.0	-0.0	-0.0	80382.5	-25515.560546875	-6059.20068359375
0.2015	-0.0	-0.0	-0.0	10.989906311035156	52.59968566894531	-451.6498107910156	4.714173793792725	-33.57883834838867	-331.39410400390625	-0.0	-0.0	-0.0	-0.0	-0.0	-0.0	80461.03125	-25092.814453125	-6203.56689453125
0.202	-0.0	-0.0	-0.0	11.124961853027344	52.233524322509766	-448.3820190429688	4.381426334381104	-33.90475845336914	-332.4714660644531	-0.0	-0.0	-0.0	-0.0	-0.0	-0.0	80979.015625	-24826.015625	-6272.0400390625
0.2025	-0.0	-0.0	-0.0	11.138792037963867	51.87601089477539	-448.82666015625	4.340737819671631	-34.786720275878906	-334.5189819335937	-0.0	-0.0	-0.0	-0.0	-0.0	-0.0	80936.5	-24337.3828125	-6399.671875
0.203	-0.0	-0.0	-0.0	10.666692733764648	50.81631851196289	-446.7605285644531	3.413949489593506	-35.02481842041016	-335.99468994140625	-0.0	-0.0	-0.0	-0.0	-0.0	-0.0	81364.046875	-23901.615234375	-6355.77880859375
0.20350000000000001	-0.0	-0.0	-0.0	11.751801490783691	50.62207412719727	-441.8914184570313	3.290125608444214	-35.3481559753418	-338.6924743652344	-0.0	-0.0	-0.0	-0.0	-0.0	-0.0	81496.6484375	-23479.140625	-6623.02783203125
0.20400000000000001	-0.0	-0.0	-0.0	11.34254264831543	49.98677444458008	-440.998291015625	2.7876298427581787	-36.001670837402344	-339.3412780761719	-0.0	-0.0	-0.0	-0.0	-0.0	-0.0	81537.328125	-23155.03125	-6943.72021484375
0.20450000000000002	-0.0	-0.0	-0.0	11.42685890197754	48.98506546020508	-440.2913208007813	2.0807669162750244	-36.69955825805664	-339.55743408203125	-0.0	-0.0	-0.0	-0.0	-0.0	-0.0	81716.7265625	-22574.4140625	-7110.46875
0.20500000000000002	-0.0	-0.0	-0.0	11.644859313964844	47.92201232910156	-439.4253234863281	1.5043387413024902	-37.25624847412109	-340.8202209472656	-0.0	-0.0	-0.0	-0.0	-0.0	-0.0	81656.515625	-22147.658203125	-7235.35400390625
0.20550000000000002	-0.0	-0.0	-0.0	12.47811508178711	47.67342376708984	-438.5745544433594	1.3343640565872192	-37.45945358276367	-341.16485595703125	-0.0	-0.0	-0.0	-0.0	-0.0	-0.0	81663.8515625	-21705.033203125	-7307.15771484375
0.20600000000000002	-0.0	-0.0	-0.0	12.078859329223633	46.60781097412109	-438.00927734375	1.289066195487976	-37.31216812133789	-341.7210998535156	-0.0	-0.0	-0.0	-0.0	-0.0	-0.0	81524.0234375	-21108.083984375	-7567.62255859375
0.20650000000000002	-0.0	-0.0	-0.0	12.757146835327148	45.97833251953125	-437.5679931640625	0.7078999280929565	-37.7115592956543	-341.33111572265625	-0.0	-0.0	-0.0	-0.0	-0.0	-0.0	81617.2890625	-20442.7421875	-7722.927734375
0.20700000000000002	-0.0	-0.0	-0.0	12.71875	44.980655670166016	-436.4177856445313	0.4569435119628906	-37.66395568847656	-343.2437744140625	-0.0	-0.0	-0.0	-0.0	-0.0	-0.0	81989.09375	-20275.22265625	-7860.07861328125
0.20750000000000002	-0.0	-0.0	-0.0	12.321820259094238	44.47966003417969	-437.6183776855469	-0.0245537627488374	-37.3740463256836	-345.2833557128906	-0.0	-0.0	-0.0	-0.0	-0.0	-0.0	82258.96875	-19922.6015625	-8143.32177734375
0.20800000000000002	-0.0	-0.0	-0.0	12.594514846801758	44.18642807006836	-435.689453125	-0.823060154914856	-37.38124465942383	-346.1635131835937	-0.0	-0.0	-0.0	-0.0	-0.0	-0.0	82355.1484375	-19229.388671875	-8575.265625
0.2085	-0.0	-0.0	-0.0	12.273377418518066	44.27893829345703	-433.8609008789063	-1.214566349983215	-37.10523223876953	-346.7010192871094	-0.0	-0.0	-0.0	-0.0	-0.0	-0.0	82215.8984375	-18708.38671875	-8823.3515625
0.209	-0.0	-0.0	-0.0	12.091423988342283	44.00893783569336	-431.290771484375	-2.0511221885681152	-37.34624862670898	-345.9382629394531	-0.0	-0.0	-0.0	-0.0	-0.0	-0.0	82146.0703125	-18251.125	-9222.4609375
0.2095	-0.0	-0.0	-0.0	10.814453125	42.967506408691406	-429.7804565429688	-3.012917280197144	-37.71983337402344	-347.0311279296875	-0.0	-0.0	-0.0	-0.0	-0.0	-0.0	82222.9765625	-17476.21484375	-9502.0439453125
